<mxfile host="app.diagrams.net" modified="2023-04-17T13:36:46.032Z" agent="Mozilla/5.0 (Macintosh; Intel Mac OS X 10_15_7) AppleWebKit/537.36 (KHTML, like Gecko) Chrome/112.0.0.0 Safari/537.36" etag="PnyG8C4YFaRJrW-8ve1U" version="21.1.8" type="github">
  <diagram name="Page-1" id="QW2edVtM4x1Y-tCMq49f">
    <mxGraphModel dx="2715" dy="1156" grid="1" gridSize="10" guides="1" tooltips="1" connect="1" arrows="1" fold="1" page="1" pageScale="1" pageWidth="827" pageHeight="1169" math="0" shadow="0">
      <root>
        <mxCell id="0" />
        <mxCell id="1" parent="0" />
        <mxCell id="9PZWjTOa6fIL-mQ5FGQS-2" value="abstract class&lt;br&gt;&lt;u&gt;animals&lt;/u&gt;" style="swimlane;fontStyle=0;childLayout=stackLayout;horizontal=1;startSize=30;horizontalStack=0;resizeParent=1;resizeParentMax=0;resizeLast=0;collapsible=1;marginBottom=0;whiteSpace=wrap;html=1;" vertex="1" parent="1">
          <mxGeometry x="390" y="60" width="140" height="90" as="geometry" />
        </mxCell>
        <mxCell id="9PZWjTOa6fIL-mQ5FGQS-3" value="name" style="text;strokeColor=none;fillColor=none;align=left;verticalAlign=middle;spacingLeft=4;spacingRight=4;overflow=hidden;points=[[0,0.5],[1,0.5]];portConstraint=eastwest;rotatable=0;whiteSpace=wrap;html=1;" vertex="1" parent="9PZWjTOa6fIL-mQ5FGQS-2">
          <mxGeometry y="30" width="140" height="30" as="geometry" />
        </mxCell>
        <mxCell id="9PZWjTOa6fIL-mQ5FGQS-4" value="age" style="text;strokeColor=none;fillColor=none;align=left;verticalAlign=middle;spacingLeft=4;spacingRight=4;overflow=hidden;points=[[0,0.5],[1,0.5]];portConstraint=eastwest;rotatable=0;whiteSpace=wrap;html=1;" vertex="1" parent="9PZWjTOa6fIL-mQ5FGQS-2">
          <mxGeometry y="60" width="140" height="30" as="geometry" />
        </mxCell>
        <mxCell id="9PZWjTOa6fIL-mQ5FGQS-6" value="class&lt;br&gt;&lt;u&gt;pets&lt;/u&gt;" style="swimlane;fontStyle=0;childLayout=stackLayout;horizontal=1;startSize=30;horizontalStack=0;resizeParent=1;resizeParentMax=0;resizeLast=0;collapsible=1;marginBottom=0;whiteSpace=wrap;html=1;" vertex="1" parent="1">
          <mxGeometry x="120" y="230" width="140" height="60" as="geometry" />
        </mxCell>
        <mxCell id="9PZWjTOa6fIL-mQ5FGQS-10" value="class&lt;br&gt;&lt;u&gt;dogs&lt;/u&gt;" style="swimlane;fontStyle=0;childLayout=stackLayout;horizontal=1;startSize=30;horizontalStack=0;resizeParent=1;resizeParentMax=0;resizeLast=0;collapsible=1;marginBottom=0;whiteSpace=wrap;html=1;" vertex="1" parent="1">
          <mxGeometry x="-40" y="360" width="140" height="60" as="geometry" />
        </mxCell>
        <mxCell id="9PZWjTOa6fIL-mQ5FGQS-14" value="class&lt;br&gt;&lt;u&gt;cats&lt;/u&gt;" style="swimlane;fontStyle=0;childLayout=stackLayout;horizontal=1;startSize=30;horizontalStack=0;resizeParent=1;resizeParentMax=0;resizeLast=0;collapsible=1;marginBottom=0;whiteSpace=wrap;html=1;" vertex="1" parent="1">
          <mxGeometry x="120" y="360" width="140" height="60" as="geometry" />
        </mxCell>
        <mxCell id="9PZWjTOa6fIL-mQ5FGQS-20" value="class&lt;br&gt;&lt;u&gt;humster&lt;/u&gt;" style="swimlane;fontStyle=0;childLayout=stackLayout;horizontal=1;startSize=30;horizontalStack=0;resizeParent=1;resizeParentMax=0;resizeLast=0;collapsible=1;marginBottom=0;whiteSpace=wrap;html=1;" vertex="1" parent="1">
          <mxGeometry x="280" y="360" width="140" height="60" as="geometry" />
        </mxCell>
        <mxCell id="9PZWjTOa6fIL-mQ5FGQS-22" value="class&lt;br&gt;&lt;u&gt;pack_animals&lt;/u&gt;" style="swimlane;fontStyle=0;childLayout=stackLayout;horizontal=1;startSize=30;horizontalStack=0;resizeParent=1;resizeParentMax=0;resizeLast=0;collapsible=1;marginBottom=0;whiteSpace=wrap;html=1;" vertex="1" parent="1">
          <mxGeometry x="660" y="230" width="140" height="60" as="geometry" />
        </mxCell>
        <mxCell id="9PZWjTOa6fIL-mQ5FGQS-24" value="class&lt;br&gt;&lt;u&gt;horse&lt;/u&gt;" style="swimlane;fontStyle=0;childLayout=stackLayout;horizontal=1;startSize=30;horizontalStack=0;resizeParent=1;resizeParentMax=0;resizeLast=0;collapsible=1;marginBottom=0;whiteSpace=wrap;html=1;" vertex="1" parent="1">
          <mxGeometry x="500" y="360" width="140" height="60" as="geometry" />
        </mxCell>
        <mxCell id="9PZWjTOa6fIL-mQ5FGQS-26" value="class&lt;br&gt;&lt;u&gt;camel&lt;/u&gt;" style="swimlane;fontStyle=0;childLayout=stackLayout;horizontal=1;startSize=30;horizontalStack=0;resizeParent=1;resizeParentMax=0;resizeLast=0;collapsible=1;marginBottom=0;whiteSpace=wrap;html=1;" vertex="1" parent="1">
          <mxGeometry x="660" y="360" width="140" height="60" as="geometry" />
        </mxCell>
        <mxCell id="9PZWjTOa6fIL-mQ5FGQS-28" value="class&lt;br&gt;&lt;u&gt;donkey&lt;/u&gt;" style="swimlane;fontStyle=0;childLayout=stackLayout;horizontal=1;startSize=30;horizontalStack=0;resizeParent=1;resizeParentMax=0;resizeLast=0;collapsible=1;marginBottom=0;whiteSpace=wrap;html=1;" vertex="1" parent="1">
          <mxGeometry x="820" y="360" width="140" height="60" as="geometry" />
        </mxCell>
        <mxCell id="9PZWjTOa6fIL-mQ5FGQS-34" value="" style="endArrow=classic;html=1;rounded=0;entryX=0.506;entryY=0.994;entryDx=0;entryDy=0;entryPerimeter=0;exitX=0.5;exitY=0;exitDx=0;exitDy=0;" edge="1" parent="1" source="9PZWjTOa6fIL-mQ5FGQS-10">
          <mxGeometry width="50" height="50" relative="1" as="geometry">
            <mxPoint x="290" y="450" as="sourcePoint" />
            <mxPoint x="190.84000000000015" y="289.81999999999994" as="targetPoint" />
          </mxGeometry>
        </mxCell>
        <mxCell id="9PZWjTOa6fIL-mQ5FGQS-35" value="" style="endArrow=classic;html=1;rounded=0;exitX=0.5;exitY=0;exitDx=0;exitDy=0;" edge="1" parent="1" source="9PZWjTOa6fIL-mQ5FGQS-14">
          <mxGeometry width="50" height="50" relative="1" as="geometry">
            <mxPoint x="290" y="450" as="sourcePoint" />
            <mxPoint x="190" y="290" as="targetPoint" />
          </mxGeometry>
        </mxCell>
        <mxCell id="9PZWjTOa6fIL-mQ5FGQS-36" value="" style="endArrow=classic;html=1;rounded=0;exitX=0.5;exitY=0;exitDx=0;exitDy=0;" edge="1" parent="1" source="9PZWjTOa6fIL-mQ5FGQS-20">
          <mxGeometry width="50" height="50" relative="1" as="geometry">
            <mxPoint x="40" y="370" as="sourcePoint" />
            <mxPoint x="190" y="290" as="targetPoint" />
          </mxGeometry>
        </mxCell>
        <mxCell id="9PZWjTOa6fIL-mQ5FGQS-37" value="" style="endArrow=classic;html=1;rounded=0;exitX=0.5;exitY=0;exitDx=0;exitDy=0;entryX=0.276;entryY=0.978;entryDx=0;entryDy=0;entryPerimeter=0;" edge="1" parent="1" source="9PZWjTOa6fIL-mQ5FGQS-24">
          <mxGeometry width="50" height="50" relative="1" as="geometry">
            <mxPoint x="560" y="400" as="sourcePoint" />
            <mxPoint x="698.6399999999999" y="289.3399999999999" as="targetPoint" />
          </mxGeometry>
        </mxCell>
        <mxCell id="9PZWjTOa6fIL-mQ5FGQS-38" value="" style="endArrow=classic;html=1;rounded=0;exitX=0.5;exitY=0;exitDx=0;exitDy=0;entryX=0.501;entryY=0.978;entryDx=0;entryDy=0;entryPerimeter=0;" edge="1" parent="1" source="9PZWjTOa6fIL-mQ5FGQS-26">
          <mxGeometry width="50" height="50" relative="1" as="geometry">
            <mxPoint x="660" y="330" as="sourcePoint" />
            <mxPoint x="730.1399999999999" y="289.3399999999999" as="targetPoint" />
          </mxGeometry>
        </mxCell>
        <mxCell id="9PZWjTOa6fIL-mQ5FGQS-39" value="" style="endArrow=classic;html=1;rounded=0;exitX=0.454;exitY=0.02;exitDx=0;exitDy=0;exitPerimeter=0;entryX=0.816;entryY=0.989;entryDx=0;entryDy=0;entryPerimeter=0;" edge="1" parent="1" source="9PZWjTOa6fIL-mQ5FGQS-28">
          <mxGeometry width="50" height="50" relative="1" as="geometry">
            <mxPoint x="760" y="310" as="sourcePoint" />
            <mxPoint x="774.2399999999998" y="289.6700000000001" as="targetPoint" />
          </mxGeometry>
        </mxCell>
        <mxCell id="9PZWjTOa6fIL-mQ5FGQS-40" value="" style="endArrow=classic;html=1;rounded=0;exitX=0.5;exitY=0;exitDx=0;exitDy=0;entryX=1;entryY=0.5;entryDx=0;entryDy=0;" edge="1" parent="1" source="9PZWjTOa6fIL-mQ5FGQS-22" target="9PZWjTOa6fIL-mQ5FGQS-4">
          <mxGeometry width="50" height="50" relative="1" as="geometry">
            <mxPoint x="350" y="90" as="sourcePoint" />
            <mxPoint x="400" y="40" as="targetPoint" />
          </mxGeometry>
        </mxCell>
        <mxCell id="9PZWjTOa6fIL-mQ5FGQS-41" value="" style="endArrow=classic;html=1;rounded=0;exitX=0.5;exitY=0;exitDx=0;exitDy=0;entryX=0;entryY=0.5;entryDx=0;entryDy=0;" edge="1" parent="1" source="9PZWjTOa6fIL-mQ5FGQS-6" target="9PZWjTOa6fIL-mQ5FGQS-4">
          <mxGeometry width="50" height="50" relative="1" as="geometry">
            <mxPoint x="350" y="90" as="sourcePoint" />
            <mxPoint x="400" y="40" as="targetPoint" />
          </mxGeometry>
        </mxCell>
      </root>
    </mxGraphModel>
  </diagram>
</mxfile>
